<svg xmlns="http://www.w3.org/2000/svg" viewBox="0 0 682 475" width="682" height="475"><defs></defs><g>
<rect fill="#ffffff" x="0" y="0" width="224" height="198"/>
<g>
	<g transform="matrix(1,0,0,1,112,99)">
		<g transform="matrix(0.878846032,0,0,0.842404249,12.586352803,12.985888783)">
			<g>
				<g/>
			</g>
			<g>
				<g>
					<path d="M-22.666655957698822,-109.73335021734238 C-25.199989423155785,-108.66668349504471 -28.133322909474373,-106.66668339073658 -29.19998963177204,-105.4666833281517 C-30.666656374931335,-103.73334990441799 -32.39998979866505,-100.6666830778122 -33.33332318067551,-100.6666830778122 C-34.13332322239876,-100.6666830778122 -36.266656666994095,-97.33334957063198 -38.133323431015015,-93.20001602172852 C-39.866656854748726,-89.20001581311226 -39.866656854748726,-86.40001566708088 -40.26665687561035,-84.93334892392159 C-40.66665689647198,-83.46668218076229 -45.06665712594986,-83.06668215990067 -59.7333245575428,-82.93334881961346 C-70.13332509994507,-82.93334881961346 -76.7999921143055,-81.33334873616695 -80.26665896177292,-79.33334863185883 C-86.76935393181671,-77.52575051216178 -89.85012763579752,-67.40182123525057 -89.19999276101589,-66.5333479642868 C-90.26665948331356,-67.20001466572285 -90.66665950417519,-63.733347818255424 -90.66665950417519,-55.466680720448494 C-90.66665950417519,-48.800013706088066 -91.06665952503681,-43.333346754312515 -91.59999288618565,-43.20001341402531 C-95.33332641422749,-42.80001339316368 -100.66666002571583,-41.73334667086601 -101.06666004657745,-41.33334665000439 C-101.33332672715187,-41.06667996942997 -101.19999338686466,-40.13334658741951 -100.66666002571583,-39.33334654569626 C-99.99999332427979,-38.13334648311138 -99.33332662284374,-38.13334648311138 -98.26665990054607,-39.20001320540905 C-97.46665985882282,-40.0000132471323 -94.79999305307865,-40.666679948568344 -92.26665958762169,-40.666679948568344 C-92.26665958762169,-40.666679948568344 -87.8666593581438,-40.666679948568344 -87.8666593581438,-40.666679948568344 C-87.8666593581438,-40.666679948568344 -87.99999269843102,-51.733347192406654 -87.99999269843102,-51.733347192406654 C-88.13332603871822,-65.86668126285076 -87.06665931642056,-69.86668147146702 -82.39999240636826,-74.40001504123211 C-76.66665877401829,-79.86668199300766 -73.46665860712528,-80.66668203473091 -54.799990966916084,-80.66668203473091 C-54.799990966916084,-80.66668203473091 -37.73332341015339,-80.66668203473091 -37.73332341015339,-80.66668203473091 C-37.73332341015339,-80.66668203473091 -38.142200957001364,-86.16717109740074 -37.999990090727806,-86.16717109740074 C-37.33332338929176,-86.16717109740074 -35.99998998641968,-90.26668253540993 -35.59998996555805,-92.40001598000526 C-35.33507504935383,-99.56052779327621 -16.50133708908109,-112.45093235952703 -8.232918226903962,-109.82375411602112 C-2.0995845736923684,-109.82375411602112 1.3333452939987183,-110.93335027992725 1.3333452939987183,-112.53335036337376 C1.3333452939987183,-113.06668372452259 -2.6666549146175385,-113.2000170648098 -7.4666551649570465,-112.93335038423538 C-13.866655498743057,-112.53335036337376 -18.533322408795357,-111.46668364107609 -22.666655957698822,-109.73335021734238 Z" fill="#000000"/>
				</g>
				<g>
					<path d="M-2.306911554287325,-110.29840713128493 C-2.7069115751489505,-109.63174042984889 1.0666786134243011,-108.66668349504471 2.5333453565835953,-108.66668349504471 C3.8939620761865683,-108.66668349504471 11.771845806907493,-102.31882858026677 11.771845806907493,-102.31882858026677 C11.771845806907493,-102.31882858026677 12.948015305140359,-101.20529564646017 13.466679260134697,-100.6666830778122 C18.80001287162304,-95.06668278574944 20.000012934207916,-92.80001600086689 20.800012975931168,-87.33334904909134 C20.800012975931168,-87.33334904909134 21.733346357941628,-80.66668203473091 21.733346357941628,-80.66668203473091 C21.733346357941628,-80.66668203473091 41.20001403987408,-80.66668203473091 41.20001403987408,-80.66668203473091 C55.46668145060539,-80.66668203473091 56.93334819376469,-77.86668188869953 58.933348298072815,-78.40001524984837 C60.25177501425691,-79.21183657854124 66.7866181020579,-74.84332783823402 66.38661808119627,-73.37666109507472 C67.81361904367793,-72.44675103584916 73.69368328927533,-63.736771141040265 72.00001564621925,-53.466680616140366 C72.00001564621925,-40.93334662914276 72.13334898650646,-40.666679948568344 75.06668247282505,-40.666679948568344 C81.60001614689827,-40.666679948568344 92.00001668930054,-33.86667959392071 97.20001696050167,-26.40001253783703 C100.26668378710747,-21.866678968071938 103.33335061371326,-3.066677987575531 101.20001716911793,-2.2666779458522797 C100.53335046768188,-2.0000112652778625 98.26668368279934,4.933322429656982 96.0000168979168,7.3333225548267365 C93.86668345332146,9.73332267999649 92.00001668930054,12.133322805166245 92.00001668930054,12.799989506602287 C92.00001668930054,12.799989506602287 85.97853373685876,16.633044218890007 84.11186697283784,17.16637758003884 C82.24520020881693,17.566377600900466 76.80001589655876,19.99998988211155 73.73334906995296,19.466656520962715 C72.40001566708088,19.333323180675507 72.00001564621925,24.53332345187664 72.00001564621925,42.26665771007538 C72.00001564621925,64.53332553803921 71.86668230593204,65.59999226033688 68.80001547932625,70.13332583010197 C62.26668180525303,79.59999299049377 63.86668188869953,79.46665965020657 -10.399988651275635,79.06665962934494 C-10.399988651275635,79.06665962934494 -76.02416720433604,77.98356775146505 -76.02416720433604,77.98356775146505 C-76.02416720433604,77.98356775146505 -79.8666589409113,75.73332612216473 -79.8666589409113,75.73332612216473 C-85.8352390392123,69.21882270628615 -86.23523906007392,67.75215596312685 -87.99999269843102,42.533324390649796 C-87.99999269843102,42.533324390649796 -87.99999269843102,19.733323201537132 -87.99999269843102,19.733323201537132 C-87.99999269843102,19.733323201537132 -93.86665967106819,19.06665650010109 -93.86665967106819,19.06665650010109 C-104.26666021347046,17.866656437516212 -109.50569550784722,13.458806040880859 -116.30569586249486,-0.8078613698504569 C-118.78897121916275,-4.730918053575863 -116.61660275139178,-23.38973552662759 -113.99999405443668,-25.20001247525215 C-112.53332731127739,-28.13334596157074 -109.06666046380997,-32.00001282989979 -106.3999936580658,-33.86667959392071 C-101.06666004657745,-37.60001312196255 -99.52446483855474,-38.418054033062646 -99.52446483855474,-38.418054033062646 C-96.4337300849622,-41.40800449146465 -102.2425921821756,-41.78996364294943 -105.33332693576813,-38.00001314282417 C-105.33332693576813,-37.33334644138813 -114.93332743644714,-30.533346086740494 -115.8666608184576,-28.00001262128353 C-116.79999420046806,-25.33334581553936 -120.13332770764828,-20.933345586061478 -120.26666104793549,-15.733345314860344 C-120.5333277285099,-3.066677987575531 -120.26666104793549,-0.2666778415441513 -118.26666094362736,2.933322325348854 C-117.59999424219131,3.866655707359314 -115.06666077673435,7.599989235401154 -113.73332737386227,9.599989339709282 C-112.39999397099018,11.59998944401741 -110.53332720696926,13.866656228899956 -109.5999938249588,14.533322930335999 C-107.9999937415123,15.466656312346458 -102.66666013002396,19.199989840388298 -98.6666599214077,20.666656583547592 C-98.6666599214077,20.666656583547592 -91.33332620561123,23.199990049004555 -91.33332620561123,23.199990049004555 C-91.33332620561123,23.199990049004555 -91.19999286532402,38.26665750145912 -91.19999286532402,38.26665750145912 C-91.71250112423004,71.09746054190751 -81.03776610646017,78.5476394984176 -81.03776610646017,78.5476394984176 C-81.03776610646017,78.5476394984176 -77.19999213516712,79.9999930113554 -75.3333253711462,80.66665971279144 C-73.59999194741249,81.33332641422749 -43.99999040365219,81.99999311566353 -8.266655206680298,82.13332645595074 C-8.266655206680298,82.13332645595074 55.46668145060539,82.39999313652515 55.46668145060539,82.39999313652515 C55.46668145060539,82.39999313652515 62.13334846496582,79.19999296963215 62.13334846496582,79.19999296963215 C67.4429740305817,77.94956208328438 73.33334904909134,68.79999242722988 74.00001575052738,60.39999198913574 C74.40001577138901,55.73332507908344 74.93334913253784,45.466657876968384 75.20001581311226,37.46665745973587 C75.65268048556106,28.413364010760375 75.58577596736524,24.321439004255524 76.52756981011458,23.079607633806063 C76.69540547069175,22.858302737846685 92.80001673102379,16.799989715218544 91.60001666843891,16.666656374931335 C91.48223854193219,17.11543622085992 93.0822386253787,14.982102776264583 95.33335019648075,11.866656124591827 C98.72566152643554,9.654088674953812 102.85899507533901,0.05408817427479562 102.80001725256443,0.13332217931747437 C103.46668395400047,0.5333222001791 104.00001731514931,-3.6000113487243652 103.8666839748621,-8.933344960212708 C105.24993797209856,-19.314907004608756 96.58327085343001,-33.314907734765654 93.0666834115982,-34.66667963564396 C90.93334996700287,-36.53334639966488 89.55330801498695,-38.41594411246945 88.7533079732637,-38.41594411246945 C87.81997459125324,-38.549277452756655 82.66668286919594,-41.33334665000439 82.66668286919594,-42.00001335144043 C82.66668286919594,-42.80001339316368 81.86668282747269,-43.20001341402531 81.06668278574944,-43.0666800737381 C80.00001606345177,-42.80001339316368 76.61204362196901,-44.3152670286774 75.81204358024576,-43.91526700781577 C74.8787101982353,-43.24860030637973 74.53334911167622,-45.46668019890785 74.66668245196342,-53.466680616140366 C74.93334913253784,-63.20001445710659 74.53334911167622,-66.26668128371239 72.13334898650646,-71.0666815340519 C71.77289761756009,-72.69008587759834 69.39218231915453,-75.33953570583952 69.39218231915453,-75.33953570583952 C69.39218231915453,-75.33953570583952 65.76441344984443,-77.93280269025172 65.33334863185883,-77.86668188869953 C65.33334863185883,-79.60001531243324 49.3333477973938,-82.66668213903904 49.3333477973938,-83.33334884047508 C49.3333477973938,-84.00001554191113 44.00001418590546,-84.40001556277275 37.46668051183224,-84.26668222248554 C30.80001349747181,-84.13334888219833 26.007879793733366,-82.68412375457444 25.693514697521948,-82.98018915193143 C24.97061693400795,-83.66100587167097 24.359603591556038,-84.83241623230191 24.26667982339859,-86.13334898650646 C24.000013142824173,-87.86668241024017 22.280326248971676,-90.95964511482077 22.164203841413553,-91.14985540546024 C21.680240540816698,-91.94259473976388 21.333346337080002,-93.19136229282924 21.333346337080002,-94.26668274402618 C21.333346337080002,-95.60001614689827 18.903482932815564,-97.94009594502103 18.903482932815564,-99.0067626673187 C18.903482932815564,-100.07342938961636 9.250672162724157,-107.06185329105273 7.066678926348686,-109.06668351590633 C2.1333453357219696,-111.7333503216505 1.2129331713056501,-112.81573839506115 0.1462664490079817,-111.08240497132743 C0.1462664490079817,-111.08240497132743 -2.306911554287325,-110.29840713128493 -2.306911554287325,-110.29840713128493 Z" fill="#000000"/>
				</g>
				<g>
					<path d="M-47.99999061226845,-26.000012516975403 C-51.33332411944866,-22.66667900979519 -51.999990820884705,-21.066678926348686 -51.999990820884705,-15.733345314860344 C-51.999990820884705,-6.933344855904579 -47.73332393169403,-2.0000112652778625 -39.4666568338871,-1.0666778832674026 C-34.13332322239876,-0.40001118183135986 -33.06665650010109,-0.8000112026929855 -28.799989610910416,-4.933344751596451 C-24.66665606200695,-8.933344960212708 -23.999989360570908,-10.400011703372002 -23.999989360570908,-15.866678655147552 C-23.999989360570908,-19.200012162327766 -24.533322721719742,-22.000012308359146 -25.333322763442993,-22.000012308359146 C-25.999989464879036,-22.000012308359146 -27.498096204558948,-25.75268029264734 -28.133322909474373,-26.000012516975403 C-28.933322951197624,-26.000012516975403 -30.39998969435692,-26.933345898985863 -31.466656416654587,-28.00001262128353 C-32.666656479239464,-29.0666793435812 -35.86665664613247,-30.00001272559166 -38.66665679216385,-30.00001272559166 C-42.666657000780106,-30.00001272559166 -44.93332378566265,-29.0666793435812 -47.99999061226845,-26.000012516975403 C-47.99999061226845,-26.000012516975403 -47.99999061226845,-26.000012516975403 -47.99999061226845,-26.000012516975403 ZM-31.866656437516212,-25.066679134964943 C-29.599989652633667,-24.133345752954483 -28.933322951197624,-20.66667890548706 -28.133322909474373,-20.66667890548706 C-26.133322805166245,-20.66667890548706 -27.59998954832554,-10.000011682510376 -29.999989673495293,-7.333344876766205 C-33.73332320153713,-3.2000113278627396 -45.33332380652428,-2.800011307001114 -45.33332380652428,-6.933344855904579 C-45.33332380652428,-8.000011578202248 -48.39999063313007,-9.200011640787125 -49.199990674853325,-11.600011765956879 C-50.933324098587036,-16.666678696870804 -47.99999061226845,-18.266678780317307 -47.73332393169403,-20.266678884625435 C-47.466657251119614,-22.800012350082397 -41.88978974023655,-27.79673369846992 -38.823122913630755,-27.79673369846992 C-36.956456149609835,-27.79673369846992 -34.13332322239876,-26.000012516975403 -31.866656437516212,-25.066679134964943 Z" fill="#000000"/>
				</g>
				<g>
					<path d="M12.26667919754982,-25.866679176688194 C8.666679009795189,-22.400012329220772 8.000012308359146,-20.66667890548706 8.000012308359146,-15.466678634285927 C8.000012308359146,-6.933344855904579 12.400012537837029,-1.866677924990654 20.53334629535675,-1.0666778832674026 C26.0000132471323,-0.40001118183135986 26.800013288855553,-0.8000112026929855 31.200013518333435,-5.3333447724580765 C37.733347192406654,-12.000011786818504 37.86668053269386,-18.666678801178932 31.73334687948227,-25.33334581553936 C28.266680032014847,-29.200012683868408 26.666679948568344,-30.00001272559166 22.000013038516045,-30.00001272559166 C17.600012809038162,-30.00001272559166 15.600012704730034,-29.200012683868408 12.26667919754982,-25.866679176688194 C12.26667919754982,-25.866679176688194 12.26667919754982,-25.866679176688194 12.26667919754982,-25.866679176688194 ZM26.93334662914276,-25.733345836400986 C29.86668011546135,-24.26667909324169 31.466680198907852,-21.333345606923103 32.53334692120552,-14.933345273137093 C33.33334696292877,-10.400011703372002 33.20001362264156,-9.733345001935959 30.80001349747181,-9.066678300499916 C28.683975585055066,-8.463760168653238 23.866679802536964,-3.6000113487243652 18.933346211910248,-4.266678050160408 C14.000012621283531,-5.066678091883659 11.066679134964943,-10.266678363084793 10.666679114103317,-10.266678363084793 C9.200012370944023,-10.133345022797585 9.333345711231232,-17.86667875945568 10.666679114103317,-18.666678801178932 C11.466679155826569,-19.200012162327766 12.400012537837029,-23.066679030656815 14.533345982432365,-24.4000124335289 C16.80001276731491,-25.733345836400986 23.733346462249756,-27.466679260134697 26.93334662914276,-25.733345836400986 C26.93334662914276,-25.733345836400986 26.93334662914276,-25.733345836400986 26.93334662914276,-25.733345836400986 Z" fill="#000000"/>
				</g>
				<g>
					<path d="M-48.266657292842865,29.33332370221615 C-48.266657292842865,29.33332370221615 -47.73332393169403,39.33332422375679 -47.73332393169403,39.33332422375679 C-47.73332393169403,39.33332422375679 -7.866655185818672,39.33332422375679 -7.866655185818672,39.33332422375679 C-7.866655185818672,39.33332422375679 32.000013560056686,39.33332422375679 32.000013560056686,39.33332422375679 C32.000013560056686,39.33332422375679 32.000013560056686,29.33332370221615 32.000013560056686,29.33332370221615 C32.000013560056686,29.33332370221615 32.000013560056686,19.333323180675507 32.000013560056686,19.333323180675507 C32.000013560056686,19.333323180675507 -8.266655206680298,19.333323180675507 -8.266655206680298,19.333323180675507 C-8.266655206680298,19.333323180675507 -48.66665731370449,19.333323180675507 -48.66665731370449,19.333323180675507 C-48.66665731370449,19.333323180675507 -48.266657292842865,29.33332370221615 -48.266657292842865,29.33332370221615 C-48.266657292842865,29.33332370221615 -48.266657292842865,29.33332370221615 -48.266657292842865,29.33332370221615 ZM28.13334669172764,26.39999021589756 C28.266680032014847,28.799990341067314 28.400013372302055,32.13332384824753 28.533346712589264,33.99999061226845 C28.533346712589264,33.99999061226845 28.93334673345089,37.33332411944866 28.93334673345089,37.33332411944866 C28.93334673345089,37.33332411944866 -7.866655185818672,36.53332407772541 -7.866655185818672,36.53332407772541 C-28.133322909474373,35.999990716576576 -44.79999044537544,35.59999069571495 -44.93332378566265,35.46665735542774 C-45.19999046623707,35.46665735542774 -45.33332380652428,32.66665720939636 -45.33332380652428,29.33332370221615 C-45.33332380652428,29.33332370221615 -45.33332380652428,23.466656729578972 -45.33332380652428,23.466656729578972 C-45.33332380652428,23.466656729578972 -37.59999006986618,22.933323368430138 -37.59999006986618,22.933323368430138 C-33.466656520962715,22.66665668785572 -16.933322325348854,22.399990007281303 -0.9333214908838272,22.399990007281303 C-0.9333214908838272,22.399990007281303 28.00001335144043,22.266656666994095 28.00001335144043,22.266656666994095 C28.00001335144043,22.266656666994095 28.13334669172764,26.39999021589756 28.13334669172764,26.39999021589756 C28.13334669172764,26.39999021589756 28.13334669172764,26.39999021589756 28.13334669172764,26.39999021589756 Z" fill="#000000"/>
				</g>
				<g>
					<path d="" fill="none" stroke="#000000" stroke-width="2"/>
				</g>
				<g>
					<path d="" fill="none" stroke="#000000" stroke-width="2"/>
				</g>
				<g>
					<path d="" fill="none" stroke="#000000" stroke-width="2"/>
				</g>
				<g>
					<path d="M634.814213181384,431.8571462073453 C634.814213181384,431.8571462073453 634.814213181384,431.8571462073453 634.814213181384,431.8571462073453" fill="none" stroke="#000000" stroke-width="2"/>
				</g>
			</g>
		</g>
	</g>
</g></g></svg>